<?xml version="1.0" encoding="UTF-8"?>
<svg width="43px" height="43px" viewBox="0 0 43 43" version="1.1" xmlns="http://www.w3.org/2000/svg" xmlns:xlink="http://www.w3.org/1999/xlink">
    <!-- Generator: Sketch 43.2 (39069) - http://www.bohemiancoding.com/sketch -->
    <title>Fill 1</title>
    <desc>Created with Sketch.</desc>
    <defs></defs>
    <g id="desktop" stroke="none" stroke-width="1" fill="none" fill-rule="evenodd">
        <g id="Desktop-HD" transform="translate(-1322.000000, -153.000000)" fill="#FFFFFF">
            <path d="M1338.12664,179.875049 C1332.18666,179.875049 1327.37555,175.061246 1327.37555,169.123954 C1327.37555,163.186662 1332.18666,158.37286 1338.12664,158.37286 C1344.06393,158.37286 1348.87774,163.186662 1348.87774,169.123954 C1348.87774,175.061246 1344.06393,179.875049 1338.12664,179.875049 L1338.12664,179.875049 Z M1363.67124,189.594038 L1353.48458,180.931344 C1352.42829,179.98256 1351.30211,179.549828 1350.39364,179.590145 C1352.80189,176.773358 1354.25328,173.120673 1354.25328,169.126642 C1354.25328,160.222048 1347.03124,153 1338.12664,153 C1329.21936,153 1322,160.222048 1322,169.126642 C1322,178.033924 1329.21936,185.253284 1338.12664,185.253284 C1342.11799,185.253284 1345.77336,183.801886 1348.59014,181.396328 C1348.54714,182.304796 1348.97987,183.430973 1349.93134,184.48458 L1358.59135,194.671242 C1360.075,196.318848 1362.49669,196.458612 1363.97496,194.980336 C1365.45592,193.502061 1365.31347,191.077689 1363.66855,189.596726 L1363.67124,189.594038 Z" id="Fill-1"></path>
        </g>
    </g>
</svg>